<svg xmlns="http://www.w3.org/2000/svg" xmlns:xlink="http://www.w3.org/1999/xlink" width="50" zoomAndPan="magnify" viewBox="0 0 37.5 37.499999" height="50" preserveAspectRatio="xMidYMid meet" version="1.0"><defs><clipPath id="450e1955c6"><path d="M 0 0 L 37.007812 0 L 37.007812 37.007812 L 0 37.007812 Z M 0 0 " clip-rule="nonzero"/></clipPath><clipPath id="2d8834d3d7"><path d="M 18.75 0 C 8.394531 0 0 8.394531 0 18.75 C 0 29.105469 8.394531 37.5 18.75 37.5 C 29.105469 37.5 37.5 29.105469 37.5 18.75 C 37.5 8.394531 29.105469 0 18.75 0 " clip-rule="nonzero"/></clipPath><clipPath id="3e2a4fd516"><path d="M 11.265625 5.953125 L 26 5.953125 L 26 16 L 11.265625 16 Z M 11.265625 5.953125 " clip-rule="nonzero"/></clipPath><clipPath id="8561731feb"><path d="M 11.265625 21 L 26.265625 21 L 26.265625 31.453125 L 11.265625 31.453125 Z M 11.265625 21 " clip-rule="nonzero"/></clipPath></defs><g clip-path="url(#450e1955c6)"><g clip-path="url(#2d8834d3d7)"><path fill="#ffffff" d="M 0 0 L 37.5 0 L 37.5 37.5 L 0 37.5 Z M 0 0 " fill-opacity="1" fill-rule="nonzero"/></g></g><g clip-path="url(#3e2a4fd516)"><path fill="#000000" d="M 25.492188 8.082031 C 25.464844 7.871094 25.367188 7.703125 25.191406 7.582031 C 24.828125 7.257812 24.265625 6.953125 23.496094 6.65625 C 22.289062 6.183594 20.984375 5.953125 19.578125 5.953125 C 17.449219 5.953125 15.734375 6.507812 14.433594 7.621094 C 12.71875 9.0625 11.859375 10.84375 11.859375 12.9375 C 11.859375 13.816406 11.960938 14.601562 12.148438 15.289062 C 12.21875 15.527344 12.4375 15.695312 12.679688 15.695312 L 14.832031 15.695312 C 14.878906 15.695312 14.914062 15.6875 14.953125 15.683594 C 14.640625 15.464844 14.375 15.183594 14.195312 14.78125 C 13.8125 13.941406 13.65625 12.988281 13.746094 12.074219 C 13.832031 11.167969 14.109375 10.25 14.570312 9.457031 C 14.757812 9.136719 14.972656 8.890625 15.234375 8.710938 C 15.257812 8.683594 15.285156 8.660156 15.308594 8.640625 C 16.015625 8.011719 17.113281 7.695312 18.589844 7.695312 C 20.226562 7.695312 21.679688 8.054688 22.933594 8.769531 C 23.613281 9.15625 24.050781 9.773438 24.238281 10.625 C 24.339844 11.203125 24.429688 11.675781 24.503906 12.03125 C 24.539062 12.179688 24.601562 12.253906 24.691406 12.253906 L 25.585938 12.253906 C 25.660156 12.253906 25.699219 12.125 25.699219 11.863281 C 25.691406 10.277344 25.628906 9.019531 25.492188 8.082031 Z M 25.492188 8.082031 " fill-opacity="1" fill-rule="nonzero"/></g><g clip-path="url(#8561731feb)"><path fill="#000000" d="M 26.253906 24.285156 C 26.25 22.855469 25.074219 21.703125 23.632812 21.703125 L 22.777344 21.703125 C 23.734375 22.621094 24.078125 24.285156 24.089844 25.5 C 24.101562 26.425781 23.878906 27.371094 23.296875 28.113281 C 23.136719 28.316406 22.957031 28.5 22.761719 28.671875 C 22.273438 29.308594 21.625 29.773438 20.804688 30.070312 C 20.804688 30.070312 20.796875 30.078125 20.796875 30.078125 C 20.742188 30.121094 20.679688 30.132812 20.628906 30.132812 C 19.933594 30.359375 19.125 30.46875 18.207031 30.46875 C 17.5625 30.46875 16.828125 30.332031 16.023438 30.058594 C 15.214844 29.785156 14.589844 29.457031 14.15625 29.058594 C 13.238281 28.21875 12.742188 27.128906 12.667969 25.796875 C 12.617188 25.183594 12.582031 24.789062 12.554688 24.628906 C 12.53125 24.46875 12.441406 24.386719 12.292969 24.386719 L 11.527344 24.386719 C 11.355469 24.386719 11.265625 24.46875 11.265625 24.628906 C 11.265625 24.726562 11.273438 25.457031 11.285156 26.820312 C 11.296875 28.179688 11.304688 28.902344 11.304688 28.988281 C 11.304688 29.363281 11.378906 29.613281 11.527344 29.75 C 12.824219 30.886719 15.035156 31.453125 18.167969 31.453125 C 20.839844 31.453125 22.882812 30.761719 24.285156 29.375 C 25.597656 28.050781 26.261719 26.363281 26.261719 24.316406 C 26.253906 24.304688 26.253906 24.300781 26.253906 24.285156 Z M 26.253906 24.285156 " fill-opacity="1" fill-rule="nonzero"/></g><path fill="#000000" d="M 18.507812 20.113281 C 18.507812 20.113281 19.195312 19.863281 19.195312 19.242188 C 19.195312 19.242188 19.070312 19.863281 19.632812 20.050781 C 19.632812 20.050781 19.070312 20.238281 19.070312 20.734375 C 19.070312 20.734375 19.070312 20.050781 18.507812 20.113281 Z M 18.507812 20.113281 " fill-opacity="1" fill-rule="nonzero"/><path fill="#000000" d="M 16.753906 18.8125 C 16.753906 18.8125 17.710938 18.464844 17.710938 17.605469 C 17.710938 17.605469 17.539062 18.46875 18.320312 18.730469 C 18.320312 18.730469 17.539062 18.992188 17.539062 19.683594 C 17.539062 19.675781 17.539062 18.726562 16.753906 18.8125 Z M 16.753906 18.8125 " fill-opacity="1" fill-rule="nonzero"/></svg>